<?xml version="1.0" encoding="UTF-8" standalone="no"?>
<!-- Created with Inkscape (http://www.inkscape.org/) -->

<svg
   width="976.9624mm"
   height="63.283752mm"
   viewBox="0 0 976.9624 63.283752"
   version="1.1"
   id="svg550"
   inkscape:version="1.2.2 (b0a8486541, 2022-12-01)"
   sodipodi:docname="ethz_nexus_logo.svg"
   xmlns:inkscape="http://www.inkscape.org/namespaces/inkscape"
   xmlns:sodipodi="http://sodipodi.sourceforge.net/DTD/sodipodi-0.dtd"
   xmlns="http://www.w3.org/2000/svg"
   xmlns:svg="http://www.w3.org/2000/svg">
  <sodipodi:namedview
     id="namedview552"
     pagecolor="#ffffff"
     bordercolor="#000000"
     borderopacity="0.25"
     inkscape:showpageshadow="2"
     inkscape:pageopacity="0.0"
     inkscape:pagecheckerboard="0"
     inkscape:deskcolor="#d1d1d1"
     inkscape:document-units="mm"
     showgrid="false"
     inkscape:zoom="0.89174383"
     inkscape:cx="2071.2226"
     inkscape:cy="294.36705"
     inkscape:window-width="3440"
     inkscape:window-height="1371"
     inkscape:window-x="0"
     inkscape:window-y="0"
     inkscape:window-maximized="1"
     inkscape:current-layer="layer1" />
  <defs
     id="defs547" />
  <g
     inkscape:label="Layer 1"
     inkscape:groupmode="layer"
     id="layer1"
     transform="translate(443.08557,-71.017459)">
    <g
       id="g89"
       transform="matrix(2.6807829,0,0,2.6807829,-503.88841,10.38773)">
	<g
   id="g83">
		<path
   d="m 109.18,39.305 c -0.81,4.017 -3.913,4.221 -4.528,4.221 -1.752,0 -2.797,-1.012 -2.797,-2.705 0,-0.386 0.057,-0.912 0.155,-1.439 l 1.919,-9.562 0.008,-0.037 h -2.267 l -1.956,9.805 -0.026,0.14 c -0.084,0.443 -0.163,0.863 -0.163,1.408 0,2.634 1.73,4.402 4.309,4.402 1.886,0 3.401,-0.619 4.507,-1.841 l -0.294,1.615 -0.007,0.038 h 2.235 l 3.088,-15.53 0.006,-0.037 h -2.299 z"
   id="path65" />

		<path
   d="m 124.635,29.595 c -1.752,0 -3.304,0.716 -4.281,1.974 l 0.351,-1.748 0.007,-0.037 h -2.235 l -3.089,15.529 -0.007,0.038 h 2.269 l 1.891,-9.524 c 0.483,-2.445 2.36,-4.218 4.465,-4.218 0.904,0 1.616,0.356 2.176,1.087 l 0.021,0.028 1.841,-1.649 -0.019,-0.023 c -0.851,-0.982 -1.961,-1.457 -3.39,-1.457 z"
   id="path67" />

		<polygon
   points="87.534,29.784 87.149,31.759 87.143,31.797 94.878,31.797 84.579,43.442 84.574,43.448 84.186,45.351 95.164,45.351 95.554,43.337 87.348,43.337 97.679,31.692 97.684,31.685 98.071,29.784 "
   id="polygon69" />

		<polygon
   points="128.332,45.313 128.324,45.351 130.591,45.351 133.684,29.784 131.455,29.784 "
   id="polygon71" />

		<path
   d="m 159.072,29.596 c -1.865,0 -3.321,0.571 -4.44,1.75 l 1.759,-8.668 h -2.268 l -4.555,22.676 h 2.268 l 1.891,-9.525 c 0.811,-4.015 3.941,-4.218 4.56,-4.218 1.733,0 2.769,1.011 2.769,2.704 0,0.384 -0.059,0.908 -0.158,1.44 l -1.924,9.6 h 2.266 l 1.988,-9.809 c 0.096,-0.521 0.159,-0.962 0.159,-1.547 -0.002,-2.634 -1.738,-4.403 -4.315,-4.403 z"
   id="path73" />

		<path
   d="m 144.041,29.595 c -4.113,0 -7,2.897 -7.923,7.949 -0.166,0.846 -0.224,1.792 -0.224,2.397 0,3.452 2.096,5.597 5.472,5.597 1.963,0 3.755,-0.752 5.181,-2.177 l 0.021,-0.021 -1.308,-1.595 -0.023,-0.028 -0.024,0.027 c -1.203,1.266 -2.281,1.783 -3.721,1.783 -1.609,0 -3.33,-0.958 -3.33,-3.648 0,-0.842 0.1,-1.538 0.249,-2.322 0.243,-1.32 0.79,-3.164 2.005,-4.447 0.966,-0.996 2.111,-1.5 3.406,-1.5 1.352,0 2.197,0.481 3.021,1.715 l 0.02,0.031 1.664,-1.406 0.023,-0.02 -0.018,-0.025 c -1.136,-1.599 -2.522,-2.31 -4.491,-2.31 z"
   id="path75" />

		<polygon
   points="132.296,25.512 134.568,25.512 135.133,22.677 132.869,22.677 "
   id="polygon77" />

		<polygon
   points="110.249,25.512 112.522,25.512 113.084,22.677 110.823,22.677 "
   id="polygon79" />

		<polygon
   points="104.203,25.512 106.475,25.512 107.039,22.677 104.777,22.677 "
   id="polygon81" />

	</g>

	<g
   id="g87">
		<polygon
   points="33.157,28.345 49.337,28.345 45.921,45.353 53.008,45.353 56.424,28.345 62.374,28.345 58.958,45.353 66.046,45.353 67.795,36.567 72.896,36.567 71.146,45.353 78.233,45.353 82.789,22.677 75.702,22.677 73.91,31.464 68.809,31.464 70.6,22.677 27.235,22.677 22.681,45.353 39.971,45.353 41.104,39.685 30.895,39.685 31.514,36.567 41.719,36.567 42.747,31.464 32.539,31.464 "
   id="polygon85" />

	</g>

</g>
    <g
       id="g226"
       transform="matrix(0.03527778,0,0,-0.03527778,250.27661,134.30121)">
      <path
         d="M 1689.61,1425.99 H 0 v 344.64 h 1492.87 c 108.65,0 196.74,-89.86 196.74,-200.72 v -143.92"
         style="fill:#171615;fill-opacity:1;fill-rule:nonzero;stroke:none"
         id="path228" />
      <path
         d="M 1689.61,81.0781 H 192.598 C 86.2305,81.0781 0,169.051 0,277.57 v 65.598 H 1689.61 V 81.0781"
         style="fill:#171615;fill-opacity:1;fill-rule:nonzero;stroke:none"
         id="path230" />
      <path
         d="M 1689.61,1064.12 H 0 v 176.04 h 1689.61 v -176.04"
         style="fill:#171615;fill-opacity:1;fill-rule:nonzero;stroke:none"
         id="path232" />
      <path
         d="M 1689.61,537.41 H 0 V 963.324 H 1689.61 V 537.41"
         style="fill:#171615;fill-opacity:1;fill-rule:nonzero;stroke:none"
         id="path234" />
      <path
         d="M 643.676,1770.7 H 910.855 V 1425.99 H 643.676 v 344.71"
         style="fill:#d0251e;fill-opacity:1;fill-rule:nonzero;stroke:none"
         id="path236" />
      <path
         d="M 682.348,343.16 H 949.531 V 81.0781 H 682.348 V 343.16"
         style="fill:#3b81ca;fill-opacity:1;fill-rule:nonzero;stroke:none"
         id="path238" />
      <path
         d="m 1182.63,1240.16 h 267.18 v -176.04 h -267.18 v 176.04"
         style="fill:#f8f11c;fill-opacity:1;fill-rule:nonzero;stroke:none"
         id="path240" />
      <path
         d="M 263.66,963.324 H 530.84 V 537.41 H 263.66 v 425.914"
         style="fill:#2b8e4b;fill-opacity:1;fill-rule:nonzero;stroke:none"
         id="path242" />
      <path
         d="m 1972.1,222.359 h 70.22 c 23.22,0 39.72,4.313 49.48,12.969 9.75,8.641 14.64,20.813 14.64,36.492 0,11.371 -2.88,21.102 -8.61,29.192 -5.76,8.09 -13.33,13.429 -22.71,16.019 -6.05,1.61 -17.23,2.418 -33.54,2.418 H 1972.1 Z M 1936.15,79.8594 V 351.5 h 102.47 c 18.03,0 31.8,-0.859 41.32,-2.602 13.34,-2.218 24.52,-6.449 33.54,-12.679 9.01,-6.239 16.27,-14.981 21.77,-26.231 5.5,-11.226 8.25,-23.59 8.25,-37.058 0,-23.09 -7.36,-42.641 -22.05,-58.641 -14.71,-16 -41.27,-24 -79.68,-24 H 1972.1 V 79.8594 h -35.95"
         style="fill:#171615;fill-opacity:1;fill-rule:nonzero;stroke:none"
         id="path244" />
      <path
         d="m 2206.44,197.16 h 109.88 c -1.48,16.539 -5.68,28.961 -12.6,37.231 -10.63,12.859 -24.4,19.269 -41.32,19.269 -15.32,0 -28.19,-5.129 -38.63,-15.371 -10.44,-10.258 -16.22,-23.969 -17.33,-41.129 z m 109.51,-53.93 34.47,-4.261 c -5.45,-20.141 -15.51,-35.77 -30.21,-46.8792 -14.7,-11.121 -33.48,-16.6796 -56.33,-16.6796 -28.79,0 -51.6,8.8593 -68.47,26.5898 -16.85,17.719 -25.29,42.59 -25.29,74.578 0,33.113 8.53,58.813 25.57,77.082 17.05,18.289 39.16,27.43 66.34,27.43 26.31,0 47.81,-8.961 64.48,-26.86 16.68,-17.929 25.02,-43.128 25.02,-75.601 0,-1.988 -0.07,-4.961 -0.19,-8.899 h -146.75 c 1.23,-21.628 7.34,-38.171 18.34,-49.66 10.99,-11.48 24.71,-17.242 41.14,-17.242 12.23,0 22.66,3.223 31.31,9.641 8.64,6.422 15.5,16.672 20.57,30.761"
         style="fill:#171615;fill-opacity:1;fill-rule:nonzero;stroke:none"
         id="path246" />
      <path
         d="M 2407.07,79.8594 V 276.641 h 30.02 V 246.82 c 7.65,13.942 14.73,23.149 21.21,27.598 6.49,4.441 13.62,6.672 21.4,6.672 11.24,0 22.67,-3.578 34.28,-10.75 l -11.48,-30.942 c -8.16,4.821 -16.31,7.223 -24.46,7.223 -7.3,0 -13.84,-2.18 -19.65,-6.57 -5.81,-4.391 -9.94,-10.481 -12.41,-18.262 -3.71,-11.859 -5.56,-24.828 -5.56,-38.91 V 79.8594 h -33.35"
         style="fill:#171615;fill-opacity:1;fill-rule:nonzero;stroke:none"
         id="path248" />
      <path
         d="m 2543.21,138.602 32.98,5.187 c 1.85,-13.219 7.01,-23.34 15.48,-30.391 8.45,-7.039 20.28,-10.57 35.48,-10.57 15.31,0 26.68,3.121 34.09,9.363 7.41,6.25 11.12,13.559 11.12,21.969 0,7.531 -3.28,13.461 -9.82,17.789 -4.58,2.961 -15.94,6.719 -34.1,11.289 -24.46,6.18 -41.42,11.532 -50.86,16.032 -9.46,4.511 -16.61,10.75 -21.49,18.718 -4.89,7.961 -7.32,16.762 -7.32,26.403 0,8.769 2,16.89 6.01,24.371 4.02,7.468 9.48,13.679 16.41,18.609 5.18,3.84 12.26,7.09 21.22,9.738 8.95,2.653 18.55,3.981 28.81,3.981 15.43,0 29,-2.231 40.66,-6.672 11.69,-4.449 20.3,-10.469 25.86,-18.066 5.56,-7.59 9.38,-17.75 11.49,-30.481 l -32.62,-4.449 c -1.48,10.129 -5.77,18.039 -12.88,23.719 -7.1,5.679 -17.13,8.519 -30.1,8.519 -15.33,0 -26.26,-2.531 -32.8,-7.582 -6.56,-5.078 -9.82,-11.008 -9.82,-17.789 0,-4.328 1.35,-8.219 4.07,-11.687 2.71,-3.582 6.98,-6.543 12.79,-8.891 3.33,-1.231 13.16,-4.082 29.46,-8.52 23.59,-6.3 40.05,-11.453 49.38,-15.472 9.33,-4.02 16.64,-9.848 21.96,-17.52 5.31,-7.648 7.97,-17.16 7.97,-28.527 0,-11.121 -3.25,-21.582 -9.73,-31.402 -6.49,-9.8286 -15.84,-17.4184 -28.07,-22.8012 -12.23,-5.3672 -26.07,-8.0586 -41.51,-8.0586 -25.57,0 -45.06,5.3086 -58.46,15.9296 -13.4,10.6292 -21.96,26.3712 -25.66,47.2622"
         style="fill:#171615;fill-opacity:1;fill-rule:nonzero;stroke:none"
         id="path250" />
      <path
         d="m 2782.34,178.262 c 0,-25.203 5.49,-44.082 16.49,-56.621 11,-12.539 24.83,-18.813 41.51,-18.813 16.55,0 30.32,6.301 41.32,18.902 10.99,12.598 16.49,31.809 16.49,57.641 0,24.32 -5.53,42.758 -16.58,55.309 -11.06,12.531 -24.81,18.808 -41.23,18.808 -16.68,0 -30.51,-6.238 -41.51,-18.726 -11,-12.473 -16.49,-31.301 -16.49,-56.5 z m -34.28,0 c 0,36.429 10.13,63.429 30.39,80.957 16.92,14.582 37.55,21.871 61.89,21.871 27.05,0 49.16,-8.86 66.34,-26.59 17.16,-17.73 25.75,-42.219 25.75,-73.469 0,-25.32 -3.79,-45.242 -11.4,-59.761 -7.58,-14.52 -18.64,-25.7895 -33.16,-33.8091 -14.52,-8.0312 -30.36,-12.0507 -47.53,-12.0507 -27.55,0 -49.81,8.8281 -66.8,26.5078 -16.98,17.652 -25.48,43.102 -25.48,76.344"
         style="fill:#171615;fill-opacity:1;fill-rule:nonzero;stroke:none"
         id="path252" />
      <path
         d="M 2982.89,79.8594 V 276.641 h 30.02 v -27.973 c 14.45,21.613 35.32,32.422 62.63,32.422 11.85,0 22.76,-2.129 32.69,-6.391 9.95,-4.258 17.39,-9.859 22.34,-16.769 4.93,-6.918 8.39,-15.129 10.37,-24.649 1.23,-6.172 1.86,-16.992 1.86,-32.422 V 79.8594 h -33.36 V 199.559 c 0,13.589 -1.29,23.75 -3.89,30.48 -2.59,6.731 -7.19,12.109 -13.8,16.121 -6.61,4.012 -14.36,6.02 -23.26,6.02 -14.21,0 -26.46,-4.508 -36.77,-13.52 -10.32,-9.031 -15.48,-26.129 -15.48,-51.332 V 79.8594 h -33.35"
         style="fill:#171615;fill-opacity:1;fill-rule:nonzero;stroke:none"
         id="path254" />
      <path
         d="m 3331.89,178.629 c -12.11,-4.961 -30.27,-9.149 -54.47,-12.598 -13.72,-1.992 -23.42,-4.222 -29.1,-6.672 -5.68,-2.48 -10.07,-6.089 -13.15,-10.847 -3.09,-4.762 -4.63,-10.043 -4.63,-15.84 0,-8.891 3.36,-16.301 10.1,-22.231 6.73,-5.929 16.58,-8.89 29.55,-8.89 12.84,0 24.27,2.801 34.28,8.418 10.01,5.621 17.35,13.301 22.05,23.082 3.58,7.519 5.37,18.64 5.37,33.347 z m 2.78,-74.488 C 3322.32,93.6289 3310.43,86.2109 3299,81.8984 c -11.42,-4.3281 -23.69,-6.4882 -36.78,-6.4882 -21.62,0 -38.24,5.2812 -49.84,15.8515 -11.62,10.5583 -17.42,24.0583 -17.42,40.4763 0,9.633 2.19,18.442 6.57,26.41 4.39,7.973 10.14,14.352 17.25,19.172 7.09,4.821 15.09,8.469 23.99,10.942 6.54,1.718 16.42,3.398 29.64,5 26.93,3.207 46.76,7.039 59.48,11.476 0.12,4.582 0.19,7.481 0.19,8.723 0,13.578 -3.15,23.16 -9.45,28.711 -8.53,7.539 -21.19,11.316 -37.99,11.316 -15.69,0 -27.26,-2.75 -34.74,-8.25 -7.48,-5.5 -13,-15.238 -16.58,-29.179 l -32.62,4.441 c 2.97,13.949 7.84,25.219 14.64,33.82 6.79,8.578 16.61,15.192 29.46,19.821 12.85,4.64 27.73,6.949 44.66,6.949 16.79,0 30.45,-1.969 40.95,-5.93 10.49,-3.949 18.22,-8.93 23.16,-14.91 4.94,-6 8.4,-13.57 10.38,-22.699 1.11,-5.692 1.67,-15.93 1.67,-30.762 V 162.32 c 0,-31.011 0.71,-50.621 2.13,-58.832 1.42,-8.2263 4.23,-16.0974 8.43,-23.6286 h -34.84 c -3.46,6.9219 -5.68,15.0117 -6.67,24.2816"
         style="fill:#171615;fill-opacity:1;fill-rule:nonzero;stroke:none"
         id="path256" />
      <path
         d="M 3435.51,79.8594 V 351.5 h 33.36 V 79.8594 h -33.36"
         style="fill:#171615;fill-opacity:1;fill-rule:nonzero;stroke:none"
         id="path258" />
      <path
         d="M 3540.67,79.8594 V 276.641 h 33.35 V 79.8594 Z m 0,233.2886 V 351.5 h 33.35 v -38.352 h -33.35"
         style="fill:#171615;fill-opacity:1;fill-rule:nonzero;stroke:none"
         id="path260" />
      <path
         d="M 3628.06,79.8594 V 106.91 l 125.26,143.789 c -14.21,-0.738 -26.75,-1.109 -37.61,-1.109 h -80.23 v 27.051 h 160.83 V 254.602 L 3689.77,129.711 3669.2,106.91 c 14.94,1.11 28.96,1.68 42.06,1.68 h 90.98 V 79.8594 h -174.18"
         style="fill:#171615;fill-opacity:1;fill-rule:nonzero;stroke:none"
         id="path262" />
      <path
         d="m 3873.9,197.16 h 109.88 c -1.49,16.539 -5.69,28.961 -12.6,37.231 -10.63,12.859 -24.4,19.269 -41.32,19.269 -15.33,0 -28.2,-5.129 -38.63,-15.371 -10.45,-10.258 -16.22,-23.969 -17.33,-41.129 z m 109.51,-53.93 34.46,-4.261 c -5.44,-20.141 -15.51,-35.77 -30.2,-46.8792 -14.71,-11.121 -33.48,-16.6796 -56.33,-16.6796 -28.79,0 -51.6,8.8593 -68.47,26.5898 -16.86,17.719 -25.29,42.59 -25.29,74.578 0,33.113 8.52,58.813 25.57,77.082 17.05,18.289 39.16,27.43 66.34,27.43 26.31,0 47.8,-8.961 64.48,-26.86 16.67,-17.929 25.01,-43.128 25.01,-75.601 0,-1.988 -0.07,-4.961 -0.18,-8.899 h -146.76 c 1.23,-21.628 7.35,-38.171 18.35,-49.66 10.99,-11.48 24.7,-17.242 41.13,-17.242 12.23,0 22.67,3.223 31.32,9.641 8.64,6.422 15.49,16.672 20.57,30.761"
         style="fill:#171615;fill-opacity:1;fill-rule:nonzero;stroke:none"
         id="path264" />
      <path
         d="m 4098.1,178.059 c 0,-25.2 5.31,-44.039 15.94,-56.5 10.62,-12.489 23.16,-18.731 37.61,-18.731 14.57,0 26.96,5.973 37.16,17.891 10.18,11.922 15.28,30.109 15.28,54.57 0,26.922 -5.19,46.699 -15.56,59.301 -10.38,12.601 -23.17,18.898 -38.36,18.898 -14.82,0 -27.21,-6.07 -37.16,-18.16 -9.94,-12.109 -14.91,-31.199 -14.91,-57.269 z m 105.43,-98.1996 v 24.8316 c -12.48,-19.5191 -30.82,-29.2808 -55.03,-29.2808 -15.69,0 -30.1,4.3281 -43.27,12.9687 -13.15,8.6524 -23.35,20.7231 -30.56,36.2301 -7.24,15.5 -10.85,33.321 -10.85,53.45 0,19.64 3.27,37.472 9.82,53.472 6.55,15.989 16.37,28.258 29.46,36.778 13.09,8.519 27.73,12.781 43.92,12.781 11.86,0 22.42,-2.5 31.68,-7.5 9.27,-5.012 16.8,-11.52 22.61,-19.559 V 351.5 h 33.17 V 79.8594 h -30.95"
         style="fill:#171615;fill-opacity:1;fill-rule:nonzero;stroke:none"
         id="path266" />
      <path
         d="M 4439.6,79.8594 V 351.5 h 35.94 V 239.949 h 141.2 V 351.5 h 35.95 V 79.8594 h -35.95 V 207.898 h -141.2 V 79.8594 h -35.94"
         style="fill:#171615;fill-opacity:1;fill-rule:nonzero;stroke:none"
         id="path268" />
      <path
         d="m 4737.3,197.16 h 109.88 c -1.48,16.539 -5.69,28.961 -12.6,37.231 -10.63,12.859 -24.4,19.269 -41.32,19.269 -15.32,0 -28.19,-5.129 -38.63,-15.371 -10.44,-10.258 -16.22,-23.969 -17.33,-41.129 z m 109.51,-53.93 34.46,-4.261 c -5.44,-20.141 -15.5,-35.77 -30.2,-46.8792 -14.71,-11.121 -33.48,-16.6796 -56.33,-16.6796 -28.79,0 -51.6,8.8593 -68.47,26.5898 -16.85,17.719 -25.29,42.59 -25.29,74.578 0,33.113 8.53,58.813 25.57,77.082 17.05,18.289 39.16,27.43 66.34,27.43 26.31,0 47.8,-8.961 64.48,-26.86 16.68,-17.929 25.02,-43.128 25.02,-75.601 0,-1.988 -0.07,-4.961 -0.19,-8.899 h -146.75 c 1.23,-21.628 7.34,-38.171 18.34,-49.66 10.99,-11.48 24.7,-17.242 41.14,-17.242 12.23,0 22.66,3.223 31.31,9.641 8.64,6.422 15.5,16.672 20.57,30.761"
         style="fill:#171615;fill-opacity:1;fill-rule:nonzero;stroke:none"
         id="path270" />
      <path
         d="m 5058.27,178.629 c -12.11,-4.961 -30.27,-9.149 -54.48,-12.598 -13.71,-1.992 -23.41,-4.222 -29.09,-6.672 -5.68,-2.48 -10.07,-6.089 -13.15,-10.847 -3.09,-4.762 -4.64,-10.043 -4.64,-15.84 0,-8.891 3.37,-16.301 10.11,-22.231 6.73,-5.929 16.58,-8.89 29.55,-8.89 12.84,0 24.27,2.801 34.28,8.418 10,5.621 17.35,13.301 22.05,23.082 3.58,7.519 5.37,18.64 5.37,33.347 z m 2.78,-74.488 c -12.36,-10.5121 -24.24,-17.9301 -35.67,-22.2426 -11.42,-4.3281 -23.69,-6.4882 -36.78,-6.4882 -21.62,0 -38.24,5.2812 -49.84,15.8515 -11.62,10.5583 -17.42,24.0583 -17.42,40.4763 0,9.633 2.19,18.442 6.57,26.41 4.39,7.973 10.13,14.352 17.24,19.172 7.1,4.821 15.1,8.469 23.99,10.942 6.55,1.718 16.43,3.398 29.65,5 26.93,3.207 46.75,7.039 59.48,11.476 0.12,4.582 0.19,7.481 0.19,8.723 0,13.578 -3.15,23.16 -9.45,28.711 -8.53,7.539 -21.2,11.316 -37.99,11.316 -15.69,0 -27.27,-2.75 -34.74,-8.25 -7.48,-5.5 -13.01,-15.238 -16.59,-29.179 l -32.61,4.441 c 2.97,13.949 7.84,25.219 14.64,33.82 6.79,8.578 16.61,15.192 29.46,19.821 12.85,4.64 27.73,6.949 44.66,6.949 16.79,0 30.45,-1.969 40.95,-5.93 10.49,-3.949 18.22,-8.93 23.16,-14.91 4.94,-6 8.4,-13.57 10.38,-22.699 1.11,-5.692 1.66,-15.93 1.66,-30.762 V 162.32 c 0,-31.011 0.72,-50.621 2.14,-58.832 1.41,-8.2263 4.22,-16.0974 8.43,-23.6286 h -34.84 c -3.46,6.9219 -5.68,15.0117 -6.67,24.2816"
         style="fill:#171615;fill-opacity:1;fill-rule:nonzero;stroke:none"
         id="path272" />
      <path
         d="M 5159.06,79.8594 V 351.5 h 33.36 V 79.8594 h -33.36"
         style="fill:#171615;fill-opacity:1;fill-rule:nonzero;stroke:none"
         id="path274" />
      <path
         d="m 5334.99,109.699 4.82,-29.4685 c -9.4,-1.9688 -17.79,-2.9688 -25.2,-2.9688 -12.12,0 -21.5,1.918 -28.17,5.7578 -6.67,3.8203 -11.37,8.8516 -14.08,15.0899 -2.72,6.2426 -4.08,19.3706 -4.08,39.3786 v 113.211 h -24.46 v 25.942 h 24.46 v 48.738 l 33.17,20.012 v -68.75 h 33.54 v -25.942 h -33.54 V 135.641 c 0,-9.52 0.58,-15.629 1.76,-18.352 1.17,-2.719 3.09,-4.879 5.74,-6.48 2.66,-1.618 6.45,-2.418 11.4,-2.418 3.71,0 8.58,0.429 14.64,1.308"
         style="fill:#171615;fill-opacity:1;fill-rule:nonzero;stroke:none"
         id="path276" />
      <path
         d="M 5394.14,79.8594 V 351.5 h 33.35 v -97.469 c 15.57,18.047 35.21,27.059 58.93,27.059 14.57,0 27.23,-2.871 37.98,-8.61 10.75,-5.75 18.43,-13.691 23.08,-23.812 4.62,-10.137 6.94,-24.828 6.94,-44.098 V 79.8594 h -33.35 V 204.57 c 0,16.68 -3.61,28.809 -10.85,36.41 -7.22,7.59 -17.45,11.399 -30.66,11.399 -9.89,0 -19.17,-2.578 -27.89,-7.699 -8.7,-5.129 -14.91,-12.078 -18.62,-20.84 -3.7,-8.781 -5.56,-20.891 -5.56,-36.32 V 79.8594 h -33.35"
         style="fill:#171615;fill-opacity:1;fill-rule:nonzero;stroke:none"
         id="path278" />
      <path
         d="M 5768.7,79.8594 V 319.449 h -89.5 V 351.5 h 215.31 v -32.051 h -89.87 V 79.8594 h -35.94"
         style="fill:#171615;fill-opacity:1;fill-rule:nonzero;stroke:none"
         id="path280" />
      <path
         d="m 5927.28,197.16 h 109.88 c -1.48,16.539 -5.68,28.961 -12.6,37.231 -10.63,12.859 -24.4,19.269 -41.32,19.269 -15.32,0 -28.19,-5.129 -38.63,-15.371 -10.44,-10.258 -16.22,-23.969 -17.33,-41.129 z m 109.51,-53.93 34.47,-4.261 c -5.45,-20.141 -15.51,-35.77 -30.21,-46.8792 -14.7,-11.121 -33.48,-16.6796 -56.33,-16.6796 -28.79,0 -51.6,8.8593 -68.47,26.5898 -16.85,17.719 -25.29,42.59 -25.29,74.578 0,33.113 8.53,58.813 25.57,77.082 17.05,18.289 39.16,27.43 66.34,27.43 26.31,0 47.81,-8.961 64.48,-26.86 16.68,-17.929 25.02,-43.128 25.02,-75.601 0,-1.988 -0.07,-4.961 -0.19,-8.899 h -146.75 c 1.23,-21.628 7.34,-38.171 18.34,-49.66 10.99,-11.48 24.71,-17.242 41.14,-17.242 12.23,0 22.66,3.223 31.31,9.641 8.64,6.422 15.5,16.672 20.57,30.761"
         style="fill:#171615;fill-opacity:1;fill-rule:nonzero;stroke:none"
         id="path282" />
      <path
         d="m 6253.85,151.949 32.8,-4.277 c -3.59,-22.602 -12.76,-40.293 -27.51,-53.0822 -14.77,-12.7812 -32.9,-19.1796 -54.39,-19.1796 -26.94,0 -48.58,8.8086 -64.94,26.4098 -16.38,17.598 -24.56,42.828 -24.56,75.7 0,21.242 3.52,39.832 10.56,55.761 7.04,15.938 17.76,27.887 32.16,35.86 14.38,7.968 30.03,11.949 46.96,11.949 21.37,0 38.85,-5.41 52.44,-16.211 13.59,-10.809 22.3,-26.16 26.13,-46.051 l -32.43,-5 c -3.09,13.211 -8.55,23.16 -16.39,29.832 -7.85,6.668 -17.33,10 -28.45,10 -16.8,0 -30.45,-6.012 -40.95,-18.058 -10.5,-12.043 -15.75,-31.102 -15.75,-57.172 0,-26.43 5.06,-45.641 15.2,-57.61 10.12,-12 23.34,-17.992 39.65,-17.992 13.09,0 24.02,4.024 32.8,12.063 8.76,8.007 14.32,20.379 16.67,37.058"
         style="fill:#171615;fill-opacity:1;fill-rule:nonzero;stroke:none"
         id="path284" />
      <path
         d="M 6336.01,79.8594 V 351.5 h 33.35 v -97.469 c 15.56,18.047 35.2,27.059 58.92,27.059 14.57,0 27.24,-2.871 37.99,-8.61 10.75,-5.75 18.43,-13.691 23.07,-23.812 4.63,-10.137 6.95,-24.828 6.95,-44.098 V 79.8594 h -33.36 V 204.57 c 0,16.68 -3.61,28.809 -10.84,36.41 -7.22,7.59 -17.45,11.399 -30.66,11.399 -9.89,0 -19.18,-2.578 -27.89,-7.699 -8.7,-5.129 -14.92,-12.078 -18.62,-20.84 -3.71,-8.781 -5.56,-20.891 -5.56,-36.32 V 79.8594 h -33.35"
         style="fill:#171615;fill-opacity:1;fill-rule:nonzero;stroke:none"
         id="path286" />
      <path
         d="M 6557.46,79.8594 V 276.641 h 30.02 v -27.973 c 14.45,21.613 35.32,32.422 62.63,32.422 11.86,0 22.76,-2.129 32.7,-6.391 9.94,-4.258 17.39,-9.859 22.33,-16.769 4.93,-6.918 8.4,-15.129 10.38,-24.649 1.22,-6.172 1.85,-16.992 1.85,-32.422 V 79.8594 h -33.35 V 199.559 c 0,13.589 -1.3,23.75 -3.89,30.48 -2.6,6.731 -7.2,12.109 -13.8,16.121 -6.62,4.012 -14.37,6.02 -23.26,6.02 -14.21,0 -26.47,-4.508 -36.78,-13.52 -10.32,-9.031 -15.48,-26.129 -15.48,-51.332 V 79.8594 h -33.35"
         style="fill:#171615;fill-opacity:1;fill-rule:nonzero;stroke:none"
         id="path288" />
      <path
         d="m 6797.93,178.262 c 0,-25.203 5.49,-44.082 16.49,-56.621 10.99,-12.539 24.83,-18.813 41.51,-18.813 16.55,0 30.32,6.301 41.32,18.902 10.99,12.598 16.49,31.809 16.49,57.641 0,24.32 -5.53,42.758 -16.58,55.309 -11.06,12.531 -24.81,18.808 -41.23,18.808 -16.68,0 -30.52,-6.238 -41.51,-18.726 -11,-12.473 -16.49,-31.301 -16.49,-56.5 z m -34.28,0 c 0,36.429 10.12,63.429 30.39,80.957 16.92,14.582 37.55,21.871 61.89,21.871 27.05,0 49.16,-8.86 66.33,-26.59 17.17,-17.73 25.76,-42.219 25.76,-73.469 0,-25.32 -3.8,-45.242 -11.4,-59.761 -7.59,-14.52 -18.65,-25.7895 -33.16,-33.8091 -14.52,-8.0312 -30.37,-12.0507 -47.53,-12.0507 -27.55,0 -49.82,8.8281 -66.81,26.5078 -16.98,17.652 -25.47,43.102 -25.47,76.344"
         style="fill:#171615;fill-opacity:1;fill-rule:nonzero;stroke:none"
         id="path290" />
      <path
         d="M 6994.9,79.8594 V 351.5 h 33.35 V 79.8594 h -33.35"
         style="fill:#171615;fill-opacity:1;fill-rule:nonzero;stroke:none"
         id="path292" />
      <path
         d="m 7114.14,178.262 c 0,-25.203 5.49,-44.082 16.49,-56.621 10.99,-12.539 24.83,-18.813 41.5,-18.813 16.55,0 30.32,6.301 41.33,18.902 10.99,12.598 16.49,31.809 16.49,57.641 0,24.32 -5.53,42.758 -16.58,55.309 -11.06,12.531 -24.81,18.808 -41.24,18.808 -16.67,0 -30.51,-6.238 -41.5,-18.726 -11,-12.473 -16.49,-31.301 -16.49,-56.5 z m -34.28,0 c 0,36.429 10.12,63.429 30.39,80.957 16.92,14.582 37.54,21.871 61.88,21.871 27.06,0 49.17,-8.86 66.34,-26.59 17.16,-17.73 25.76,-42.219 25.76,-73.469 0,-25.32 -3.8,-45.242 -11.4,-59.761 -7.59,-14.52 -18.65,-25.7895 -33.16,-33.8091 -14.52,-8.0312 -30.37,-12.0507 -47.54,-12.0507 -27.55,0 -49.81,8.8281 -66.8,26.5078 -16.98,17.652 -25.47,43.102 -25.47,76.344"
         style="fill:#171615;fill-opacity:1;fill-rule:nonzero;stroke:none"
         id="path294" />
      <path
         d="m 7341.89,181.77 c 0,-25.821 5.12,-44.649 15.38,-56.508 10.25,-11.864 23.1,-17.793 38.55,-17.793 15.31,0 28.16,5.89 38.54,17.703 10.37,11.797 15.56,30.289 15.56,55.488 0,24.078 -5.34,42.238 -16.03,54.469 -10.68,12.23 -23.56,18.359 -38.63,18.359 -14.82,0 -27.42,-6.027 -37.8,-18.066 -10.38,-12.051 -15.57,-29.934 -15.57,-53.652 z m -27.6,-118.2192 32.42,-4.8203 c 1.36,-10 5.12,-17.2813 11.31,-21.8594 8.26,-6.1719 19.57,-9.2695 33.9,-9.2695 15.44,0 27.36,3.0976 35.77,9.2695 8.39,6.1797 14.08,14.8203 17.04,25.9375 1.73,6.8125 2.53,21.0625 2.41,42.8124 -14.58,-17.1796 -32.74,-25.7616 -54.47,-25.7616 -27.06,0 -48,9.7617 -62.82,29.2696 -14.82,19.531 -22.24,42.93 -22.24,70.242 0,18.758 3.4,36.09 10.2,51.969 6.78,15.871 16.64,28.14 29.56,36.781 12.9,8.649 28.06,12.969 45.48,12.969 23.22,0 42.36,-9.391 57.44,-28.168 v 23.719 h 30.76 V 106.539 c 0,-30.6171 -3.12,-52.3398 -9.36,-65.1288 -6.23,-12.7813 -16.11,-22.8789 -29.65,-30.2891 C 7428.52,3.71094 7411.87,0 7392.11,0 c -23.47,0 -42.43,5.28125 -56.89,15.8398 -14.45,10.5586 -21.43,26.4688 -20.93,47.711"
         style="fill:#171615;fill-opacity:1;fill-rule:nonzero;stroke:none"
         id="path296" />
      <path
         d="M 7543.96,79.8594 V 276.641 h 33.35 V 79.8594 Z m 0,233.2886 V 351.5 h 33.35 v -38.352 h -33.35"
         style="fill:#171615;fill-opacity:1;fill-rule:nonzero;stroke:none"
         id="path298" />
      <path
         d="m 7668.43,197.16 h 109.88 c -1.49,16.539 -5.69,28.961 -12.6,37.231 -10.63,12.859 -24.4,19.269 -41.32,19.269 -15.33,0 -28.2,-5.129 -38.63,-15.371 -10.45,-10.258 -16.22,-23.969 -17.33,-41.129 z m 109.51,-53.93 34.46,-4.261 c -5.44,-20.141 -15.51,-35.77 -30.2,-46.8792 -14.71,-11.121 -33.48,-16.6796 -56.33,-16.6796 -28.79,0 -51.6,8.8593 -68.47,26.5898 -16.86,17.719 -25.29,42.59 -25.29,74.578 0,33.113 8.52,58.813 25.57,77.082 17.05,18.289 39.15,27.43 66.33,27.43 26.32,0 47.81,-8.961 64.49,-26.86 16.67,-17.929 25.01,-43.128 25.01,-75.601 0,-1.988 -0.07,-4.961 -0.18,-8.899 h -146.76 c 1.23,-21.628 7.35,-38.171 18.35,-49.66 10.99,-11.48 24.7,-17.242 41.13,-17.242 12.23,0 22.67,3.223 31.32,9.641 8.64,6.422 15.49,16.672 20.57,30.761"
         style="fill:#171615;fill-opacity:1;fill-rule:nonzero;stroke:none"
         id="path300" />
      <path
         d="m 7855.79,138.602 32.98,5.187 c 1.86,-13.219 7.01,-23.34 15.48,-30.391 8.46,-7.039 20.28,-10.57 35.48,-10.57 15.31,0 26.68,3.121 34.09,9.363 7.41,6.25 11.12,13.559 11.12,21.969 0,7.531 -3.28,13.461 -9.82,17.789 -4.57,2.961 -15.94,6.719 -34.09,11.289 -24.46,6.18 -41.42,11.532 -50.86,16.032 -9.46,4.511 -16.62,10.75 -21.5,18.718 -4.88,7.961 -7.32,16.762 -7.32,26.403 0,8.769 2.01,16.89 6.02,24.371 4.01,7.468 9.48,13.679 16.4,18.609 5.19,3.84 12.26,7.09 21.22,9.738 8.95,2.653 18.55,3.981 28.81,3.981 15.44,0 29,-2.231 40.67,-6.672 11.68,-4.449 20.29,-10.469 25.85,-18.066 5.56,-7.59 9.38,-17.75 11.49,-30.481 l -32.61,-4.449 c -1.49,10.129 -5.78,18.039 -12.89,23.719 -7.1,5.679 -17.13,8.519 -30.1,8.519 -15.32,0 -26.26,-2.531 -32.8,-7.582 -6.55,-5.078 -9.82,-11.008 -9.82,-17.789 0,-4.328 1.36,-8.219 4.08,-11.687 2.71,-3.582 6.97,-6.543 12.78,-8.891 3.34,-1.231 13.16,-4.082 29.46,-8.52 23.6,-6.3 40.06,-11.453 49.38,-15.472 9.33,-4.02 16.65,-9.848 21.96,-17.52 5.31,-7.648 7.97,-17.16 7.97,-28.527 0,-11.121 -3.25,-21.582 -9.72,-31.402 -6.5,-9.8286 -15.85,-17.4184 -28.08,-22.8012 -12.23,-5.3672 -26.07,-8.0586 -41.51,-8.0586 -25.57,0 -45.05,5.3086 -58.46,15.9296 -13.4,10.6292 -21.95,26.3712 -25.66,47.2622"
         style="fill:#171615;fill-opacity:1;fill-rule:nonzero;stroke:none"
         id="path302" />
      <path
         d="m 2436.44,1764.67 c 217.13,0 328.98,-36.34 434.26,-142.1 108.57,-109.05 141.47,-204.89 141.47,-429.62 V 532.012 H 2697.24 V 1163.1 c 0,247.85 -70.05,317.26 -300.34,317.26 H 2249.03 V 532.012 h -318.2 V 1764.67 h 505.61"
         style="fill:#171615;fill-opacity:1;fill-rule:nonzero;stroke:none"
         id="path304" />
      <path
         d="m 6160.98,1752.39 v -624.31 c 0,-106.82 3.2,-158.635 19.23,-200.709 32.07,-90.641 96.45,-136.191 189.4,-136.191 92.97,0 160.58,48.789 186.21,139.418 12.83,32.371 16.03,97.132 16.03,187.782 v 634.01 h 313.66 v -669.62 c 0,-145.665 -9.61,-220.122 -41.66,-297.801 -76.94,-184.508 -253.03,-294.571 -471.02,-294.571 -230.82,0 -426.15,129.481 -493.46,323.696 -22.44,64.746 -28.86,119.773 -28.86,265.436 v 672.86 h 310.47"
         style="fill:#171615;fill-opacity:1;fill-rule:nonzero;stroke:none"
         id="path306" />
      <path
         d="m 7535.35,491.469 c -147.93,0 -368.79,72.429 -481.24,196.082 l 199.98,188.015 c 48.65,-46.121 120.35,-116.535 264.07,-116.535 153.59,0 205.73,64.489 205.73,136.086 0,128.513 -187.52,142.553 -321.25,180.303 -257.93,72.81 -302.13,213.97 -302.13,340.07 0,229.07 196.01,378.38 440.65,378.38 203.44,0 362.13,-55.14 456.67,-176.3 L 7811.71,1461.6 c -38.01,29.28 -127.8,97.15 -244,97.15 -118.76,0 -175.55,-56.62 -177.6,-131.68 -2.7,-99.05 148.13,-128.2 264.66,-156.81 333.91,-81.99 384.29,-220.78 384.29,-362.639 0,-254.172 -223.44,-416.152 -503.71,-416.152"
         style="fill:#171615;fill-opacity:1;fill-rule:nonzero;stroke:none"
         id="path308" />
      <path
         d="M 5680.3,532.012 H 5310.45 L 4440.56,1752.39 h 369.85 L 5680.3,532.012"
         style="fill:#171615;fill-opacity:1;fill-rule:nonzero;stroke:none"
         id="path310" />
      <path
         d="M 4426.48,532.012 H 4793.4 L 5663.29,1752.39 H 5296.37 L 4426.48,532.012"
         style="fill:#171615;fill-opacity:1;fill-rule:nonzero;stroke:none"
         id="path312" />
      <path
         d="m 4026.86,1317.5 c -9.58,50.79 -27.31,99.47 -74.29,149.21 -46.99,49.72 -104.17,74.59 -171.51,74.59 -72.07,0 -127.27,-13.41 -188.12,-75.7 -51.92,-53.16 -69.39,-155.6 -69.39,-231.26 z M 4129.94,881.492 4314.92,699.68 c 0,0 -76.79,-89.91 -171.6,-136.032 -99.72,-48.507 -212.3,-73.718 -349.33,-73.718 -216.95,0 -377.49,70.871 -481.65,212.629 C 3230.12,816.102 3189,959.414 3189,1132.51 c 0,206.74 54.03,368.65 162.1,485.74 108.08,117.06 244.73,175.62 409.99,175.62 185.59,0 332.03,-61.29 439.34,-183.84 107.28,-122.58 154.47,-314.37 154.47,-474.34 L 3532.14,998.527 c 2.48,-36.484 24.15,-125.839 75.05,-180.257 50.91,-54.45 114.34,-81.641 190.32,-81.641 51.68,0 125.87,7.391 167.93,23.742 63.81,24.789 120.25,57.418 164.5,121.121"
         style="fill:#171615;fill-opacity:1;fill-rule:nonzero;stroke:none"
         id="path314" />
    </g>
  </g>
</svg>
